<?xml version="1.0" encoding="utf-8"?>
<!-- Generator: Adobe Illustrator 23.0.3, SVG Export Plug-In . SVG Version: 6.00 Build 0)  -->
<svg version="1.1" id="Layer_1" xmlns="http://www.w3.org/2000/svg" xmlns:xlink="http://www.w3.org/1999/xlink" x="0px" y="0px"
	 viewBox="0 0 40 37.2" style="enable-background:new 0 0 40 37.2;" xml:space="preserve">
<style type="text/css">
	.st0{fill:none;stroke:#1B6D68;stroke-width:2;stroke-linecap:round;stroke-miterlimit:10;}
</style>
<title>Coaching Icon_1</title>
<g>
	<g id="Icons">
		<g id="Coaching_Icon">
			<circle class="st0" cx="28.3" cy="14.3" r="8.5"/>
			<circle class="st0" cx="11.8" cy="9.5" r="8.5"/>
			<path class="st0" d="M33.8,21c0,0,4.7,3,5.2,12.3c0.1,1.5-1.1,2.8-2.6,2.8c0,0-0.1,0-0.1,0H20.1c-1.5,0-2.7-1.2-2.7-2.7
				c0,0,0-0.1,0-0.1c0.5-9.4,5.4-12.5,5.4-12.5"/>
			<path class="st0" d="M17.6,31.7H3.7C2.2,31.7,1,30.5,1,29c0,0,0-0.1,0-0.1c0.5-9.4,5.4-12.5,5.4-12.5"/>
			<path class="st0" d="M17.4,16.6c0,0,2.4,1.5,3.9,5.7"/>
		</g>
	</g>
</g>
</svg>
