<?xml version="1.0" encoding="utf-8"?>
<!-- Generator: Adobe Illustrator 23.0.3, SVG Export Plug-In . SVG Version: 6.00 Build 0)  -->
<svg version="1.1" id="Layer_1" xmlns="http://www.w3.org/2000/svg" xmlns:xlink="http://www.w3.org/1999/xlink" x="0px" y="0px"
	 viewBox="0 0 43.1 41.2" style="enable-background:new 0 0 43.1 41.2;" xml:space="preserve">
<style type="text/css">
	.st0{fill:none;stroke:#1B6D68;stroke-width:2;stroke-linecap:round;stroke-miterlimit:10;}
</style>
<title>Confidence Icon_1</title>
<g>
	<g id="Icons">
		<path class="st0" d="M23.2,2.2l3.7,11.4c0.2,0.7,0.9,1.2,1.6,1.2h11.9c0.9,0,1.7,0.7,1.7,1.7c0,0.5-0.3,1.1-0.7,1.4l-9.7,7
			c-0.6,0.4-0.8,1.2-0.6,1.9L34.8,38c0.3,0.9-0.2,1.8-1.1,2.1c-0.5,0.2-1.1,0.1-1.5-0.2l-9.7-7c-0.6-0.4-1.4-0.4-2,0l-9.7,7
			c-0.8,0.5-1.8,0.4-2.4-0.4c-0.3-0.4-0.4-1-0.2-1.5L12,26.7c0.2-0.7,0-1.5-0.6-1.9l-9.7-7c-0.8-0.5-0.9-1.6-0.4-2.4
			c0.3-0.4,0.8-0.7,1.4-0.7h11.9c0.7,0,1.4-0.5,1.6-1.2l3.7-11.4c0.3-0.9,1.2-1.4,2.1-1.1C22.6,1.2,23,1.6,23.2,2.2z"/>
	</g>
</g>
</svg>
