<?xml version="1.0" standalone="no"?>
<!DOCTYPE svg PUBLIC "-//W3C//DTD SVG 20010904//EN"
 "http://www.w3.org/TR/2001/REC-SVG-20010904/DTD/svg10.dtd">
<svg version="1.0" xmlns="http://www.w3.org/2000/svg"
 width="136.000000pt" height="75.000000pt" viewBox="0 0 136.000000 75.000000"
 preserveAspectRatio="xMidYMid meet">

<g transform="translate(0.000000,75.000000) scale(0.100000,-0.100000)"
fill="#000000" stroke="none">
<path d="M275 703 c-113 -25 -180 -91 -199 -195 -9 -47 9 -124 39 -169 15 -24
20 -40 14 -50 -21 -34 -31 -119 -19 -171 20 -96 -32 -88 599 -88 619 0 591 -3
611 68 46 167 -76 339 -247 345 -32 1 -74 -1 -93 -5 -33 -7 -36 -6 -57 31 -60
105 -230 149 -347 90 -21 -11 -40 -19 -41 -17 -1 2 -12 22 -24 45 -41 81 -151
135 -236 116z m123 -54 c48 -23 102 -89 102 -123 -1 -12 -12 -34 -25 -50 -22
-28 -29 -30 -92 -31 -78 -1 -138 -24 -195 -74 l-36 -31 -21 43 c-84 172 94
349 267 266z m397 -118 c37 -17 106 -83 131 -126 9 -16 14 -17 44 -7 53 19
138 15 186 -9 112 -54 174 -206 123 -301 -9 -17 -44 -18 -565 -18 l-554 0 -11
27 c-6 16 -9 56 -7 89 8 125 98 214 225 222 l65 4 -4 -32 c-3 -36 18 -54 28
-23 28 86 75 145 139 174 53 24 147 24 200 0z"/>
</g>
</svg>
